<?xml version="1.0" standalone="no"?>
<!DOCTYPE svg PUBLIC "-//W3C//DTD SVG 20010904//EN"
 "http://www.w3.org/TR/2001/REC-SVG-20010904/DTD/svg10.dtd">
<svg version="1.0" xmlns="http://www.w3.org/2000/svg"
 width="260.000000pt" height="260.000000pt" viewBox="0 0 260.000000 260.000000"
 preserveAspectRatio="xMidYMid meet">
<metadata>
Created by potrace 1.14, written by Peter Selinger 2001-2017
</metadata>
<g transform="translate(0.000000,260.000000) scale(0.100000,-0.100000)"
fill="#000000" stroke="none">
<path d="M0 1300 l0 -1300 219 0 219 0 8 38 c4 20 7 47 6 59 -1 12 2 24 8 28
5 3 10 12 10 18 0 7 -10 -1 -21 -18 l-21 -30 6 47 c3 27 8 60 11 75 3 16 2 22
-1 15 -3 -6 -11 -9 -16 -6 -6 4 -8 2 -5 -3 8 -13 -30 -59 -40 -49 -4 4 0 21
10 39 21 41 31 95 15 79 -17 -17 -33 -15 -19 2 10 12 8 19 -9 36 -11 11 -25
18 -30 15 -6 -4 -7 2 -3 12 6 16 5 16 -10 4 -23 -19 -22 0 4 44 12 20 19 38
16 41 -3 3 -8 -4 -12 -17 -6 -16 -9 -18 -16 -8 -10 17 -21 7 -23 -24 0 -13 -6
-24 -13 -24 -9 0 -9 6 -2 20 6 10 9 30 6 43 -2 14 -2 22 1 19 6 -6 42 92 42
115 -1 8 -7 3 -16 -13 -8 -15 -12 -32 -9 -37 4 -6 2 -9 -4 -8 -5 2 -16 -5 -23
-15 -13 -18 -14 -17 -14 2 0 11 3 18 7 15 4 -2 9 9 12 24 3 15 9 36 12 47 4
12 -1 8 -13 -9 -12 -17 -19 -32 -17 -35 1 -3 -4 -13 -13 -20 -14 -13 -15 -13
-10 5 3 10 9 28 14 39 6 16 3 15 -15 -5 -22 -24 -22 -24 -16 -2 4 13 2 22 -5
22 -6 0 1 11 15 25 28 29 34 45 9 24 -13 -11 -12 -5 4 28 19 37 20 41 4 39 -9
-2 -17 -7 -17 -12 0 -5 -8 -20 -18 -34 l-19 -25 7 25 c4 14 13 35 21 47 14 22
13 22 -13 12 -14 -5 -32 -17 -39 -27 -8 -9 0 19 17 63 17 44 28 87 26 97 -3
10 -1 18 4 18 5 0 9 7 9 16 0 9 -5 12 -12 8 -8 -5 -9 0 -5 16 l6 22 -25 -23
c-13 -12 -33 -45 -43 -73 -12 -30 -20 -42 -20 -30 -1 30 26 104 46 126 9 10
17 28 18 38 2 22 -11 27 -18 8 -2 -7 -8 -10 -12 -6 -5 5 -1 16 7 25 9 10 21
29 28 43 l13 25 -24 -22 c-18 -17 -28 -19 -39 -12 -13 9 -12 10 2 6 24 -8 29
17 6 32 -19 12 -18 14 19 46 l38 34 -35 -8 c-20 -4 -45 -13 -56 -19 -16 -9
-21 -8 -21 3 0 7 11 19 25 26 30 17 85 95 88 126 2 19 -2 23 -25 23 -15 0 -33
-6 -40 -13 -12 -10 -13 -9 -7 7 4 13 2 17 -8 13 -10 -4 -13 -1 -10 8 3 8 12
11 20 8 8 -3 14 1 14 11 0 9 4 16 8 16 5 0 17 8 28 18 11 11 26 22 34 25 10 3
7 6 -7 6 -13 1 -23 -5 -23 -11 0 -10 -3 -9 -9 1 -5 8 -14 10 -21 6 -9 -5 -11
-4 -6 4 4 7 13 10 19 8 17 -5 38 19 31 37 -5 14 5 21 27 18 4 -1 5 8 2 18 -6
24 -7 24 -41 4 -19 -11 -22 -12 -9 -1 21 17 22 28 3 21 -8 -3 -17 -1 -21 5 -3
7 2 11 14 11 37 0 31 17 -14 40 -77 40 -85 66 -12 35 44 -18 71 -20 61 -3 -4
6 -3 8 4 4 19 -12 92 6 102 24 8 15 6 17 -13 13 -19 -5 -18 -1 13 32 19 21 30
35 24 32 -7 -4 -28 -9 -48 -12 -50 -8 -51 21 -1 31 19 3 32 11 29 16 -4 6 2 7
17 3 21 -7 22 -6 11 7 -10 13 -8 18 13 32 45 30 64 49 58 59 -3 6 -1 7 4 4 6
-4 17 1 24 10 10 12 10 14 2 9 -8 -4 -13 -2 -13 6 0 8 -3 9 -8 3 -4 -5 -16
-17 -27 -25 -19 -14 -19 -14 -6 3 7 9 10 17 5 17 -5 0 -2 4 5 9 12 8 9 11 -12
16 -34 9 -35 25 -1 25 32 0 52 11 94 50 35 33 34 50 -3 33 -19 -9 -23 -8 -24
6 -1 12 10 20 37 28 35 9 39 8 44 -11 4 -14 -4 -33 -24 -58 -33 -41 -37 -53
-15 -44 8 3 15 3 15 0 0 -11 -33 -69 -44 -76 -6 -4 -7 -8 -1 -8 5 0 -13 -23
-40 -50 l-50 -50 33 6 c29 6 32 4 25 -12 -12 -34 -53 -94 -63 -94 -6 0 -20
-16 -31 -35 -12 -20 -29 -35 -40 -35 -24 0 -25 -30 -1 -30 9 -1 28 -7 41 -14
l23 -13 -23 -7 c-19 -5 -21 -8 -10 -15 12 -8 12 -13 -3 -36 -10 -15 -15 -29
-13 -32 3 -2 13 7 23 21 22 34 29 27 10 -9 -8 -16 -12 -33 -9 -38 3 -6 1 -7
-4 -4 -6 4 -16 0 -23 -8 -7 -8 -9 -15 -6 -15 4 0 -3 -15 -15 -32 -20 -29 -21
-31 -3 -15 25 21 41 23 24 2 -11 -13 -10 -14 6 -9 16 6 15 2 -6 -21 -25 -28
-25 -28 -3 -22 36 8 38 -13 4 -45 -31 -29 -44 -51 -16 -28 11 9 15 9 15 1 0
-7 5 -9 11 -5 7 4 7 -1 -1 -16 -11 -21 -10 -22 6 -16 17 6 17 6 -1 -14 -13
-15 -16 -23 -8 -31 8 -8 6 -21 -8 -46 -22 -39 -17 -58 11 -43 23 12 33 13 26
2 -11 -19 -15 -71 -6 -77 5 -3 10 -11 10 -16 0 -6 -5 -7 -11 -3 -6 3 -4 -8 5
-24 12 -23 13 -33 4 -38 -7 -5 -8 -3 -3 6 6 9 4 11 -4 6 -7 -5 -10 -10 -7 -13
3 -3 1 -14 -5 -25 -7 -14 -7 -23 2 -34 9 -11 9 -14 0 -14 -7 0 -9 -5 -6 -10 4
-6 1 -18 -7 -27 -9 -12 -9 -15 0 -9 6 4 12 2 12 -3 0 -6 -4 -11 -10 -11 -5 0
-10 -5 -10 -11 0 -5 4 -7 10 -4 15 9 12 -2 -6 -31 -14 -20 -14 -23 -2 -19 9 3
21 17 28 31 10 18 16 21 22 12 6 -10 8 -8 8 4 0 9 4 20 10 23 6 4 6 -4 0 -21
-6 -15 -8 -34 -6 -41 3 -8 2 -12 -2 -9 -5 3 -9 -9 -9 -25 0 -23 3 -27 9 -15 5
9 14 16 21 16 8 0 8 -3 2 -8 -13 -9 -18 -52 -6 -52 5 0 12 6 15 13 3 6 3 -23
1 -66 -2 -43 -7 -83 -10 -90 -4 -7 0 -4 8 6 15 18 15 18 20 0 4 -14 5 -14 6 5
2 37 16 25 17 -15 0 -21 2 -63 5 -93 2 -30 0 -66 -4 -80 -7 -20 -6 -22 3 -10
10 12 11 11 7 -8 -5 -23 -5 -23 13 -7 24 22 34 5 33 -57 0 -26 3 -48 7 -48 5
0 7 -12 4 -26 -3 -14 -2 -36 2 -47 7 -22 7 -22 14 -2 7 18 8 18 15 -7 4 -16
11 -25 16 -22 5 3 9 0 9 -6 0 -7 210 -10 718 -8 l717 3 3 23 c3 20 6 21 19 10
14 -12 15 -11 5 9 -15 27 -16 55 -2 33 7 -11 10 3 10 47 0 34 4 64 10 68 5 3
6 13 3 22 -5 11 -3 14 6 9 7 -5 11 -17 8 -27 -3 -11 -1 -17 4 -13 5 3 9 20 10
37 0 32 17 84 18 59 1 -7 5 -11 9 -8 4 3 7 46 6 97 -2 59 1 87 7 78 6 -11 9
-8 9 11 l1 25 13 -24 c13 -23 13 -23 19 15 3 22 2 62 -3 89 -6 43 -6 47 6 30
7 -11 20 -29 28 -40 14 -19 15 -19 9 5 -6 22 -5 24 10 11 15 -12 16 -11 7 15
-6 16 -11 56 -13 89 -1 33 -6 66 -10 72 -10 16 1 36 14 28 14 -9 11 21 -6 62
-19 46 -19 63 2 38 12 -15 14 -16 10 -3 -3 9 0 19 8 22 10 3 12 0 8 -12 -3 -9
3 -6 13 8 25 33 24 41 -5 68 -17 18 -21 26 -12 32 9 5 6 15 -13 35 -15 16 -24
31 -21 33 3 3 12 -4 21 -16 9 -13 24 -21 38 -20 19 2 22 7 21 35 -1 18 2 33 6
33 5 0 9 -8 10 -17 0 -12 2 -13 6 -5 3 7 -1 20 -9 29 -11 15 -11 16 5 10 25
-9 21 -1 -15 34 -32 30 -32 31 -5 14 28 -16 28 -16 18 4 -6 11 -16 23 -21 26
-6 4 -8 11 -4 16 3 5 1 16 -6 23 -13 17 -22 56 -11 56 4 0 12 -5 19 -12 25
-25 11 7 -15 34 -21 22 -23 28 -10 28 9 0 29 -18 43 -40 15 -22 28 -40 31 -40
7 0 -29 64 -56 100 -14 19 -26 38 -26 42 0 3 -3 10 -8 14 -4 4 -7 11 -7 16 0
10 42 -10 52 -26 6 -8 8 -8 8 0 0 6 -9 19 -20 29 -11 10 -20 23 -19 29 3 25
-2 35 -33 66 -24 23 -27 29 -11 21 12 -6 24 -11 28 -11 12 0 -30 52 -49 61
-19 9 -19 9 4 5 14 -2 46 -11 72 -19 59 -19 52 -2 -11 25 -42 18 -44 21 -28
33 16 12 16 13 -8 19 -14 4 -23 11 -20 15 3 5 0 11 -7 13 -19 7 -20 48 0 49 9
0 3 5 -14 10 -17 5 -39 19 -50 31 l-19 22 26 -16 c26 -17 27 -17 16 7 -7 14
-18 22 -29 20 -10 -2 -23 5 -28 16 -9 15 -7 19 7 19 17 1 17 1 1 11 -10 5 -18
18 -18 27 0 9 -12 35 -25 57 -27 44 -31 60 -12 49 8 -5 7 -2 -2 9 -7 10 -15
33 -16 52 -2 34 -1 35 17 18 14 -12 15 -18 6 -24 -9 -6 -8 -10 4 -14 10 -4 22
-3 29 1 7 4 9 3 6 -3 -4 -6 0 -14 9 -17 9 -4 14 -9 11 -12 -3 -3 4 -15 15 -26
19 -19 19 -21 4 -30 -11 -6 -22 -6 -32 3 -8 6 -17 9 -21 6 -3 -4 23 -20 60
-37 36 -16 68 -34 71 -39 4 -5 -6 -14 -21 -20 -28 -10 -28 -10 7 -9 19 1 44
-3 54 -9 16 -9 10 -10 -30 -7 -37 3 -44 2 -28 -5 12 -5 25 -15 30 -22 5 -8 3
-10 -7 -4 -7 5 -22 10 -32 10 -16 2 -16 0 -3 -13 8 -9 29 -15 46 -15 20 0 26
-3 18 -9 -9 -5 -6 -8 10 -8 13 0 21 -4 17 -9 -7 -12 32 -34 49 -28 9 4 13 -8
12 -39 0 -24 -3 -44 -8 -44 -4 0 -8 -4 -8 -9 0 -5 17 -12 37 -16 20 -4 47 -15
60 -25 20 -15 21 -19 7 -24 -9 -4 -19 -4 -22 -1 -3 3 1 5 8 5 29 0 -3 14 -35
16 l-34 1 43 -41 c24 -23 60 -50 80 -60 45 -21 41 -33 -5 -17 -40 14 -72 14
-64 1 4 -6 10 -8 15 -5 4 3 14 -3 21 -13 11 -14 11 -15 0 -5 -14 12 -44 7 -36
-7 2 -4 -6 -5 -20 -3 -31 6 -28 -13 9 -54 16 -18 38 -47 49 -65 l19 -33 -36
34 c-32 31 -41 33 -37 8 1 -5 -2 -6 -7 -3 -13 8 -39 -13 -26 -21 13 -10 44
-55 44 -65 0 -4 -7 -5 -16 -1 -14 5 -15 3 -5 -16 7 -12 19 -25 27 -28 12 -4
13 -8 3 -13 -8 -6 -5 -11 10 -19 12 -7 19 -16 16 -22 -9 -14 -42 7 -59 39 -9
15 -15 22 -16 16 0 -6 9 -23 20 -36 10 -14 16 -29 12 -32 -4 -4 -1 -6 7 -4 8
1 17 -5 19 -16 3 -13 0 -16 -9 -10 -8 4 3 -9 24 -30 42 -42 42 -64 0 -25 -14
13 -22 17 -17 9 5 -8 10 -26 12 -40 2 -14 15 -38 30 -55 45 -50 71 -91 63
-103 -4 -7 -20 6 -41 33 -19 24 -42 44 -50 45 -8 0 -26 12 -39 25 -27 29 -36
27 -26 -4 3 -12 11 -18 17 -15 7 4 8 2 4 -4 -4 -7 2 -21 13 -33 22 -24 19 -47
-3 -26 -8 6 -12 15 -10 19 2 4 -1 10 -7 13 -21 14 -20 -4 4 -42 13 -21 34 -58
47 -83 l22 -45 -31 29 c-41 39 -39 28 9 -51 49 -82 53 -117 5 -46 -19 29 -45
58 -58 64 -12 7 -33 24 -47 39 l-25 28 -2 -26 c0 -14 2 -20 6 -14 4 7 11 5 19
-8 10 -16 9 -18 -5 -13 -14 5 -13 0 6 -31 13 -20 21 -40 17 -43 -3 -4 -6 -1
-6 5 0 6 -8 10 -19 9 -13 -1 -17 -7 -13 -21 5 -20 5 -20 12 0 6 14 9 9 15 -24
4 -24 4 -46 1 -49 -3 -4 -6 0 -6 8 0 12 -2 12 -9 0 -7 -10 -4 -19 7 -28 13
-10 13 -12 2 -8 -11 4 -15 -3 -16 -22 -1 -16 1 -22 3 -15 6 15 23 16 23 0 0
-6 8 -21 18 -32 13 -16 13 -18 1 -8 -9 6 -20 8 -24 4 -5 -4 -5 -1 -1 5 4 7 2
13 -4 13 -8 0 -10 -14 -6 -43 l7 -42 -25 45 c-29 51 -33 50 -11 -4 16 -38 4
-51 -15 -15 -7 11 -14 18 -17 15 -3 -3 5 -22 18 -42 12 -21 17 -34 11 -30 -7
4 -12 2 -12 -6 -1 -7 -8 1 -16 17 -8 17 -11 21 -8 10 7 -21 15 -105 10 -105
-2 0 -15 18 -30 40 -15 23 -31 38 -36 35 -5 -3 -11 7 -13 22 -3 20 -4 15 -6
-15 0 -24 4 -53 10 -64 8 -16 8 -19 -1 -13 -8 5 -11 1 -8 -11 2 -11 9 -18 15
-17 6 1 14 -4 17 -13 3 -8 2 -13 -3 -10 -4 3 -16 -3 -25 -13 -13 -14 -16 -28
-11 -55 9 -48 0 -73 -20 -56 -30 25 -30 -12 2 -89 3 -8 1 -11 -5 -7 -15 9 -23
-7 -11 -24 8 -13 10 -13 19 0 6 10 10 11 10 3 0 -10 50 -13 215 -13 l215 0 0
1300 0 1300 -301 0 c-237 0 -299 -3 -293 -12 6 -10 4 -10 -7 0 -7 6 -16 12
-20 12 -11 0 2 -38 17 -51 20 -17 18 -40 -3 -32 -15 5 -15 3 3 -18 33 -38 67
-90 57 -88 -20 4 -24 -2 -12 -18 7 -10 -1 -5 -19 11 l-32 30 26 -52 c24 -49
37 -61 47 -44 2 4 2 1 1 -5 -2 -7 9 -20 24 -28 l27 -15 -29 6 c-25 6 -27 4
-22 -14 9 -26 -8 -37 -25 -16 -11 14 -11 18 4 29 21 15 22 25 1 25 -8 0 -13
-4 -9 -9 9 -16 -13 -23 -35 -11 -16 9 -18 15 -10 30 8 14 8 20 0 20 -6 0 -8 5
-5 10 4 6 1 17 -5 25 -7 8 -13 33 -15 55 -2 23 -10 52 -19 65 -9 13 -14 38
-12 54 2 17 -1 28 -5 25 -5 -3 -9 -1 -9 5 0 6 -35 10 -89 10 -83 0 -89 -1 -84
-20 3 -10 10 -19 15 -19 5 0 6 4 3 10 -4 6 1 7 11 3 13 -5 15 -3 9 8 -8 12 -6
12 9 0 13 -11 14 -16 4 -22 -6 -4 -16 -5 -20 -3 -4 3 -8 1 -8 -5 0 -5 5 -13
10 -16 8 -5 7 -12 -2 -23 -11 -15 -11 -15 3 -5 10 9 19 9 26 2 7 -7 14 -5 23
5 13 16 12 17 -29 28 -12 4 -12 5 1 10 10 4 25 -3 39 -19 13 -15 18 -23 10
-18 -9 5 -12 3 -9 -6 3 -8 11 -13 17 -11 7 1 10 -2 7 -7 -4 -5 -2 -12 4 -16
19 -12 31 -43 18 -51 -6 -4 -8 -3 -5 3 4 6 -5 19 -20 28 -25 17 -26 17 -18 -1
4 -11 9 -29 10 -41 2 -12 7 -27 11 -34 5 -9 2 -10 -9 -6 -14 5 -15 3 -5 -13 7
-10 17 -16 23 -14 5 3 1 -2 -9 -10 -11 -9 -24 -16 -29 -16 -4 0 -5 -4 -2 -10
3 -5 0 -10 -7 -10 -20 0 -79 -51 -72 -61 3 -5 -4 -9 -16 -9 -12 0 -28 -7 -36
-15 -10 -10 -11 -15 -3 -15 9 0 9 -3 0 -14 -7 -8 -21 -14 -32 -13 -11 1 -15 5
-10 10 5 5 7 15 5 22 -3 7 5 20 18 29 18 13 19 16 5 16 -19 0 -43 -32 -52 -72
-4 -16 -11 -26 -15 -23 -5 3 -6 -5 -3 -17 4 -19 3 -20 -6 -8 -10 13 -11 13
-11 0 -1 -8 -14 -31 -31 -50 l-30 -35 6 30 c4 23 3 25 -4 10 -5 -12 -16 -27
-26 -35 -9 -7 -25 -31 -36 -51 -12 -24 -27 -39 -41 -41 -12 -2 -33 -19 -46
-38 -29 -43 -44 -50 -42 -19 5 52 1 62 -15 49 -10 -8 -15 -31 -15 -66 0 -41
-4 -54 -15 -54 -8 0 -16 13 -19 33 -22 137 -24 143 -25 106 -1 -33 -14 -49
-43 -53 -3 -1 -10 -4 -14 -8 -12 -12 -26 -9 -18 4 4 7 3 8 -4 4 -21 -13 -61
25 -76 72 -8 26 -15 38 -14 27 1 -37 -2 -46 -13 -40 -6 4 -8 14 -5 22 3 8 2
12 -3 9 -14 -9 -38 18 -66 74 -15 30 -30 62 -34 70 -4 8 -22 23 -41 32 -18 9
-38 22 -43 27 -6 6 -20 11 -32 11 -15 0 -17 -2 -6 -9 10 -6 10 -10 1 -16 -6
-4 -21 2 -33 13 -12 11 -28 17 -34 15 -7 -3 -13 0 -13 6 0 6 7 11 16 11 8 0
12 5 9 10 -4 6 -10 8 -15 5 -5 -3 -11 -1 -15 5 -3 5 -15 10 -26 10 -10 0 -19
6 -20 13 0 6 -4 3 -9 -8 -13 -29 -12 -39 3 -27 7 5 21 6 32 1 11 -4 14 -8 7
-8 -7 -1 -10 -6 -6 -12 7 -13 -33 -3 -52 12 -12 9 -12 64 -1 75 3 3 3 12 0 20
-4 10 -10 8 -25 -9 -17 -19 -16 -15 4 22 13 24 29 46 36 48 7 3 24 27 37 52
33 65 49 78 67 52 8 -12 18 -18 23 -13 5 4 4 0 -1 -8 -9 -16 -16 -50 -10 -50
2 0 16 18 31 39 17 25 25 47 21 59 -7 21 11 40 53 58 21 9 7 11 -73 10 -70 -1
-101 -5 -104 -14 -2 -6 -8 -10 -13 -6 -5 3 -9 -2 -9 -10 0 -18 -16 -29 -31
-21 -7 5 -3 15 10 29 l21 22 -23 1 c-12 0 -16 -1 -9 -4 10 -4 8 -8 -5 -18 -17
-13 -17 -14 2 -35 11 -12 15 -21 10 -20 -21 5 -36 0 -30 -10 3 -5 1 -10 -5
-10 -7 0 -7 -7 1 -22 11 -20 10 -21 -3 -11 -12 10 -15 10 -16 0 -1 -16 -18
-78 -27 -99 -4 -11 -3 -18 4 -18 15 0 14 -30 -3 -62 -13 -24 -12 -26 2 -21 12
3 10 -2 -6 -15 -12 -11 -21 -26 -19 -34 2 -7 2 -10 0 -6 -5 9 -59 -17 -68 -33
-4 -5 1 -17 11 -25 14 -10 15 -13 3 -9 -9 3 -22 -1 -29 -10 -7 -8 -18 -15 -24
-15 -6 0 -4 6 5 13 9 7 15 23 13 38 -2 19 5 32 27 48 15 12 33 31 39 44 11 21
10 21 -10 -2 -11 -13 -23 -21 -27 -17 -4 3 -2 11 5 18 8 8 6 16 -10 30 -17 15
-18 18 -5 18 10 0 17 6 17 13 0 7 13 26 30 42 33 31 30 57 -3 28 l-21 -18 21
30 c15 22 19 35 12 47 -6 11 -6 19 1 23 12 7 44 76 41 89 -1 4 3 14 9 22 10
11 -43 13 -314 14 l-326 0 0 -1300z m1876 1265 c19 -17 23 -23 10 -19 -15 6
-17 4 -11 -7 8 -12 6 -12 -8 0 -9 7 -14 18 -10 24 3 6 1 7 -5 3 -15 -9 -34 2
-27 15 9 14 20 11 51 -16z m-1062 -1 c9 -8 16 -11 16 -5 0 6 8 11 17 11 14 0
13 -3 -5 -23 -24 -25 -29 -43 -10 -31 7 4 8 3 4 -5 -11 -17 -39 7 -31 28 6 18
-61 -51 -87 -89 -9 -14 -17 -20 -17 -14 -1 6 15 29 34 51 45 53 45 67 0 23
l-36 -35 16 33 c18 34 55 62 55 41 0 -14 14 -3 16 12 4 24 7 25 28 3z m1256
-338 c0 -2 -9 -2 -20 1 -20 5 -20 5 -3 -26 13 -23 23 -29 38 -25 18 4 18 4 2
-6 -13 -8 -22 -8 -37 3 -11 8 -17 17 -13 21 4 3 -2 13 -13 21 -16 12 -17 16
-5 24 13 8 51 -2 51 -13z m-1189 -40 c-9 -11 -9 -16 0 -22 8 -4 9 -3 5 4 -4 7
-3 12 3 12 5 0 13 -5 16 -11 4 -6 12 -8 19 -6 6 3 17 -2 24 -9 7 -8 10 -14 5
-14 -4 0 2 -7 13 -15 16 -12 17 -14 3 -15 -9 0 -20 7 -23 16 -3 8 -10 12 -16
9 -5 -3 -10 -1 -10 4 0 6 -9 11 -19 11 -11 0 -26 7 -34 15 -8 8 -17 11 -21 8
-3 -4 -6 -3 -6 1 0 3 10 11 23 16 30 12 31 12 18 -4z m-288 -17 c-8 -8 -16 -8
-30 0 -16 9 -14 10 12 11 21 0 26 -3 18 -11z m1468 -26 c13 -15 12 -15 -8 -4
-24 12 -29 21 -14 21 5 0 15 -7 22 -17z m1 -35 c-11 -11 -32 -3 -32 12 0 4 9
6 21 3 13 -4 17 -9 11 -15z m-397 2 c-3 -5 -12 -10 -18 -10 -7 0 -6 4 3 10 19
12 23 12 15 0z m-1080 -49 c7 -12 -1 -17 -43 -26 -32 -7 -33 -6 -20 14 13 21
52 29 63 12z m870 -121 c-3 -5 -11 -10 -16 -10 -6 0 -7 5 -4 10 3 6 11 10 16
10 6 0 7 -4 4 -10z m-207 -36 c-1 -5 -9 -9 -16 -10 -10 -2 -11 1 -1 12 12 14
24 13 17 -2z m487 -48 c25 -74 6 -146 -50 -195 -41 -36 -94 -48 -143 -32 -59
18 -73 34 -77 88 -3 39 -2 44 6 23 25 -63 84 -81 115 -35 25 38 36 101 25 142
-8 27 -7 34 3 30 6 -3 23 1 35 8 30 16 77 0 86 -29z m-745 -39 c0 -53 32 -123
59 -132 31 -9 59 3 76 33 14 25 15 25 9 3 -3 -13 -7 -30 -8 -39 -3 -20 -31
-30 -84 -31 -72 -1 -157 55 -167 111 -7 36 33 91 70 99 41 8 45 4 45 -44z
m346 -95 c7 -4 32 -34 56 -67 77 -104 110 -136 125 -124 13 11 14 10 17 -11 1
-14 27 -30 46 -30 13 0 13 1 0 10 -8 5 -10 10 -5 10 6 0 23 -12 40 -26 16 -14
31 -21 33 -16 2 6 12 8 22 5 11 -3 17 -9 15 -14 -8 -11 56 -44 79 -40 10 1 15
-2 12 -7 -3 -6 -20 -9 -38 -7 -33 5 -28 -10 7 -17 11 -2 19 -10 17 -17 -1 -6
12 -18 30 -26 19 -8 26 -14 16 -15 -10 0 -18 -5 -18 -12 0 -6 -6 -3 -14 8 -8
10 -18 16 -21 12 -4 -4 9 -22 29 -41 20 -19 36 -41 37 -48 0 -8 4 -5 8 5 5 13
10 16 14 9 4 -6 1 -18 -8 -26 -13 -13 -13 -16 1 -27 8 -7 17 -10 21 -6 3 3 1
6 -5 6 -7 0 -12 5 -12 11 0 8 5 8 15 -1 9 -8 12 -17 6 -24 -9 -11 -8 -21 5
-65 5 -17 4 -22 -4 -17 -7 4 -9 -1 -7 -15 5 -25 14 -37 16 -21 3 27 4 31 12
36 4 3 5 3 2 0 -2 -4 1 -16 7 -28 12 -21 14 -27 17 -47 0 -5 6 -7 13 -3 6 4 8
3 5 -3 -3 -5 1 -23 9 -39 9 -16 20 -40 25 -54 9 -24 8 -24 -6 -6 -8 11 -15 26
-15 33 0 11 -5 11 -21 3 -20 -11 -20 -12 -3 -31 17 -19 17 -20 0 -13 -16 6
-17 5 -5 -14 7 -11 17 -19 21 -16 4 3 5 -2 2 -11 -4 -8 -2 -21 2 -28 5 -7 2
-6 -6 3 -8 9 -23 27 -32 41 -16 23 -16 23 -3 -16 8 -22 14 -48 15 -58 0 -11 5
-15 11 -11 8 4 9 -1 4 -16 -5 -17 -4 -21 5 -15 9 5 11 4 6 -4 -9 -14 -26 -5
-26 14 0 21 -17 27 -24 9 -4 -10 -2 -13 7 -8 6 4 9 4 5 0 -4 -5 -3 -19 3 -33
6 -16 6 -22 -1 -18 -6 3 -10 13 -10 21 0 8 -5 14 -11 14 -6 0 -8 -9 -4 -20 4
-12 1 -28 -7 -37 -11 -14 -11 -16 3 -11 17 7 39 -8 39 -26 0 -5 -6 -1 -14 10
-14 18 -15 18 -22 1 -5 -13 -9 -15 -14 -7 -5 8 -9 4 -13 -9 -3 -12 -1 -19 3
-16 13 8 8 -39 -5 -47 -19 -14 -22 -8 -21 41 1 27 -2 47 -6 45 -4 -3 -8 5 -8
18 0 18 -2 20 -10 8 -8 -12 -10 -12 -11 5 0 12 -3 15 -6 7 -3 -7 2 -21 11 -31
10 -11 14 -25 10 -36 -5 -13 -4 -16 4 -11 7 4 12 2 12 -4 0 -7 -7 -10 -17 -6
-15 5 -15 4 1 -9 11 -8 14 -15 8 -15 -10 0 -10 -5 -2 -20 10 -18 13 -19 34 -5
12 8 25 13 28 10 2 -3 3 10 2 28 l-3 32 9 -35 c5 -21 5 -36 -1 -38 -5 -2 -9
-13 -9 -25 0 -17 -2 -19 -9 -8 -5 8 -16 11 -24 8 -9 -3 -18 1 -21 9 -3 9 -11
12 -17 8 -8 -5 -10 1 -7 18 2 13 -1 30 -9 36 -7 7 -13 20 -12 30 0 14 2 14 8
-2 6 -17 8 -17 14 -3 6 16 -19 45 -29 34 -4 -3 -6 -18 -6 -32 0 -14 -6 -25
-13 -25 -14 0 -26 23 -21 43 1 6 1 8 -2 3 -3 -5 -11 2 -19 15 -9 15 -12 17 -8
5 7 -24 -3 -58 -16 -51 -5 4 -5 -5 1 -20 12 -32 -7 -70 -26 -54 -14 11 -13 -2
1 -34 4 -10 5 -21 1 -24 -3 -4 -6 0 -6 8 0 24 -21 40 -37 28 -7 -7 -13 -7 -13
-2 0 5 -12 8 -27 7 -21 0 -29 -8 -38 -35 -8 -23 -14 -29 -18 -19 -4 10 -6 8
-6 -7 -1 -13 -5 -23 -10 -23 -4 0 -7 12 -5 27 2 17 1 20 -2 8 -10 -35 -24 -41
-24 -10 0 27 -1 28 -15 9 -14 -19 -14 -19 -15 1 0 12 -3 16 -8 9 -4 -6 -15
-13 -24 -17 -13 -5 -18 -1 -18 13 0 25 -9 25 -26 3 -9 -13 -13 -14 -14 -4 0 7
-6 11 -13 8 -19 -7 -51 19 -41 34 5 9 2 10 -9 6 -11 -4 -18 1 -23 15 -6 20 -7
19 -23 -6 -16 -24 -18 -25 -34 -9 -10 11 -17 13 -17 5 0 -12 -31 -5 -41 11 -4
5 -14 5 -26 -1 -12 -7 -25 -7 -34 -1 -11 7 -10 9 6 10 l20 0 -20 8 c-12 5 -23
4 -28 -3 -5 -6 -7 -2 -4 12 5 22 -3 29 -17 15 -14 -14 -48 -9 -60 9 -7 10 -16
15 -21 10 -4 -4 -6 0 -3 9 4 9 2 22 -3 30 -6 10 -9 10 -9 2 0 -7 -5 -13 -11
-13 -5 0 -8 4 -4 9 3 5 0 13 -6 17 -7 4 -9 3 -6 -3 4 -6 -1 -19 -11 -30 -9
-10 -14 -14 -11 -8 3 5 6 21 6 35 1 14 -1 19 -4 13 -6 -17 -33 -17 -33 0 0 8
-3 7 -9 -2 -8 -12 -11 -9 -17 14 -5 19 -3 30 4 33 7 2 12 8 12 14 0 6 -7 5
-16 -3 -9 -7 -14 -22 -11 -36 3 -19 2 -21 -9 -12 -11 9 -14 8 -14 -5 0 -11 -7
-15 -22 -12 -18 2 -23 10 -23 34 0 34 14 33 16 -1 1 -16 3 -17 6 -5 2 9 -1 27
-7 39 -10 17 -14 19 -21 8 -5 -8 -6 -23 -3 -33 5 -15 3 -18 -10 -13 -11 5 -15
3 -10 -4 4 -7 8 -30 10 -53 1 -22 0 -35 -3 -28 -4 10 -8 9 -19 -5 -13 -17 -13
-17 -14 2 l-1 20 -8 -20 c-6 -15 -9 -8 -9 25 0 24 4 51 11 60 6 8 2 7 -10 -4
-19 -16 -23 -16 -28 -4 -3 8 -1 27 4 41 6 15 8 34 4 44 -5 12 -3 14 7 8 9 -5
7 0 -3 16 -20 27 -22 59 -5 59 6 0 8 3 5 6 -3 4 -1 16 5 28 10 19 8 18 -17 -4
l-27 -25 18 37 c9 20 22 35 27 31 5 -3 4 5 -3 17 -8 15 -8 20 -1 16 6 -4 11 0
11 11 0 11 5 24 10 31 7 9 7 9 -2 2 -19 -16 -32 -12 -18 5 11 13 10 14 -4 9
-9 -3 -16 -1 -16 6 0 6 -5 8 -12 4 -6 -4 -8 -3 -4 4 3 6 16 9 29 7 21 -4 21
-4 3 10 -17 13 -17 21 -1 13 7 -4 46 75 40 80 -3 3 -5 0 -5 -7 0 -7 -5 -9 -12
-5 -6 4 -8 3 -4 -4 3 -6 2 -13 -4 -17 -16 -10 -12 18 6 44 16 22 16 23 -5 12
-29 -16 -26 -5 7 24 31 28 51 33 31 8 -9 -11 -3 -10 19 6 17 12 32 25 32 29 0
3 -5 1 -12 -6 -24 -24 -29 -11 -8 18 12 17 25 28 29 26 4 -3 7 8 6 24 -1 23 4
31 28 41 27 11 28 14 11 20 -10 4 -13 8 -6 8 16 1 70 41 55 41 -5 0 -14 -5
-20 -11 -6 -6 -26 -14 -44 -19 -19 -4 -43 -11 -54 -15 -15 -6 -14 -3 5 11 14
10 27 21 30 24 3 4 14 10 24 13 17 7 17 6 5 -9 -13 -16 -12 -16 8 -3 14 8 19
17 13 23 -14 14 -105 20 -126 7 -18 -10 -18 -10 -1 -11 10 0 16 -4 13 -9 -4
-5 -14 -8 -24 -6 -9 1 -21 -1 -27 -5 -18 -13 -46 -20 -40 -10 18 29 96 61 161
66 38 2 83 6 99 7 22 2 30 7 29 20 -2 22 14 22 40 0 13 -11 16 -12 9 -3 -12
16 -4 18 81 20 17 1 37 10 46 20 10 11 19 17 22 15 3 -3 19 11 37 30 17 19 36
35 42 35 6 0 8 4 4 9 -3 6 12 28 33 50 37 39 64 49 88 33z m234 -6 c0 -2 -7
-7 -16 -10 -8 -3 -12 -2 -9 4 6 10 25 14 25 6z m-1270 -98 c0 -4 -7 -8 -15 -8
-8 0 -15 4 -15 8 0 5 7 9 15 9 8 0 15 -4 15 -9z m615 -98 c7 -12 -2 -12 -30 0
-19 8 -19 9 2 9 12 1 25 -3 28 -9z m-329 -45 c-11 -8 -16 -15 -11 -15 11 0
-23 -24 -46 -32 -9 -4 -16 -1 -16 8 0 8 2 12 5 9 2 -2 21 7 41 20 39 27 58 34
27 10z m-150 -50 c-11 -8 -24 -15 -30 -15 -5 0 -1 7 10 15 10 8 24 14 29 14 6
0 1 -6 -9 -14z m164 -10 c-7 -8 -17 -15 -23 -15 -6 0 -2 7 9 15 25 19 30 19
14 0z m37 -37 c2 -17 0 -19 -7 -8 -5 8 -6 18 -4 22 8 12 10 10 11 -14z m58 12
c4 -6 3 -9 -2 -8 -4 2 -8 -1 -8 -7 0 -5 17 -10 38 -9 22 0 32 -3 25 -8 -10 -6
-9 -8 3 -8 9 0 22 7 29 15 7 8 18 15 24 15 6 0 4 -5 -4 -10 -8 -5 -15 -15 -15
-22 -1 -7 -7 -11 -15 -9 -8 2 -44 4 -80 3 -49 0 -59 2 -42 9 14 5 20 14 16 20
-3 6 0 15 7 20 18 11 17 11 24 -1z m1132 -19 c13 13 57 -7 94 -44 17 -16 34
-25 40 -21 8 4 9 3 5 -4 -4 -7 -2 -12 5 -12 7 0 10 -2 7 -5 -6 -7 -68 27 -68
37 0 11 -61 40 -68 33 -4 -4 1 -11 11 -16 9 -6 17 -15 17 -21 0 -7 -4 -7 -13
1 -8 6 -17 7 -21 3 -4 -4 -6 -1 -4 7 2 8 -11 19 -32 26 -19 8 -29 14 -22 14 8
1 10 6 6 14 -4 6 1 4 12 -5 14 -12 23 -15 31 -7z m-1244 -34 c-56 -60 -73 -76
-73 -70 0 4 7 15 17 25 9 10 11 18 5 18 -6 0 -26 -19 -46 -42 -19 -24 -34 -36
-33 -27 4 25 88 118 102 113 7 -3 15 -1 19 4 3 5 12 9 21 9 11 0 8 -8 -12 -30z
m189 -21 c7 4 8 2 4 -5 -4 -6 -12 -8 -18 -5 -6 4 -22 -6 -36 -22 -13 -16 -21
-23 -18 -16 4 6 2 12 -5 12 -7 0 3 11 21 25 19 14 36 21 38 15 2 -5 9 -7 14
-4z m1129 -13 c13 -16 12 -17 -3 -4 -10 7 -18 15 -18 17 0 8 8 3 21 -13z
m-1256 -13 c-3 -5 -12 -10 -18 -10 -7 0 -6 4 3 10 19 12 23 12 15 0z m1189
-12 c-3 -5 -12 -4 -20 3 -19 16 -18 18 6 12 11 -3 17 -9 14 -15z m-1255 -49
c-13 -10 -24 -24 -24 -32 0 -22 -64 -109 -75 -102 -14 8 0 37 16 31 8 -3 11 0
7 10 -3 8 2 23 11 33 9 10 13 21 9 26 -5 4 -3 6 2 2 6 -3 21 10 34 29 13 18
28 31 34 27 5 -3 0 -14 -14 -24z m1453 -24 c11 -21 8 -18 -32 30 -24 29 -24
29 -2 10 13 -11 28 -29 34 -40z m-1378 33 c-8 -21 -52 -49 -59 -38 -3 6 5 14
18 19 14 6 28 15 32 20 9 15 15 14 9 -1z m1227 -5 c12 -10 27 -23 34 -30 7 -7
15 -10 18 -7 2 3 7 -2 11 -11 3 -9 3 -15 -1 -13 -20 8 -92 64 -93 71 0 11 8 8
31 -10z m179 -8 c14 -19 14 -19 -2 -6 -10 7 -18 18 -18 24 0 6 1 8 3 6 1 -2 9
-13 17 -24z m-1405 -24 c-30 -26 -108 -81 -118 -81 -6 0 2 14 18 30 16 17 34
29 40 27 5 -2 21 4 34 14 24 19 43 26 26 10z m1265 -44 c21 -31 21 -31 1 -8
-12 13 -21 20 -21 16 0 -4 -7 -2 -15 5 -15 13 -11 35 5 25 5 -3 19 -20 30 -38z
m90 15 c10 -12 20 -19 23 -16 3 3 7 1 10 -3 3 -5 -3 -10 -14 -10 -10 -1 -19 5
-19 13 0 8 -5 14 -11 14 -5 0 -7 -6 -3 -12 4 -7 -2 -4 -14 6 -12 11 -22 23
-22 27 0 14 33 2 50 -19z m-1340 4 c0 -2 -8 -10 -17 -17 -16 -13 -17 -12 -4 4
13 16 21 21 21 13z m1221 -32 c22 -25 22 -26 3 -16 -12 6 -24 18 -28 27 -8 21
-3 19 25 -11z m184 -32 c-3 -3 -11 0 -18 7 -9 10 -8 11 6 5 10 -3 15 -9 12
-12z m-1705 4 c0 -3 -4 -8 -10 -11 -5 -3 -10 -1 -10 4 0 6 5 11 10 11 6 0 10
-2 10 -4z m1595 -24 c-3 -3 -11 0 -18 7 -9 10 -8 11 6 5 10 -3 15 -9 12 -12z
m-44 -9 c13 -16 12 -17 -3 -4 -17 13 -22 21 -14 21 2 0 10 -8 17 -17z m-1410
-16 c-10 -9 -11 -8 -5 6 3 10 9 15 12 12 3 -3 0 -11 -7 -18z m-21 7 c0 -8 -19
-13 -24 -6 -3 5 1 9 9 9 8 0 15 -2 15 -3z m60 -34 c-44 -41 -52 -38 -10 5 18
19 36 33 38 30 3 -2 -10 -18 -28 -35z m-180 21 c0 -5 -9 -19 -21 -32 l-20 -24
17 33 c19 33 24 38 24 23z m-250 -5 c0 -2 -8 -10 -17 -17 -16 -13 -17 -12 -4
4 13 16 21 21 21 13z m532 -20 c6 4 2 -7 -8 -25 -10 -17 -20 -27 -22 -21 -2 5
-8 8 -13 4 -14 -9 -10 9 8 36 10 14 18 19 21 12 2 -7 8 -9 14 -6z m-171 -35
c-6 -10 -7 -22 -3 -26 4 -5 1 -5 -5 -1 -8 4 -13 2 -13 -5 0 -13 -52 -61 -58
-54 -2 2 6 15 19 28 13 14 33 36 43 51 22 30 31 34 17 7z m-88 -39 c-3 -12 -9
-22 -14 -22 -12 0 -11 7 3 30 15 24 19 21 11 -8z m173 -10 c-17 -16 -18 -16
-5 5 7 12 15 20 18 17 3 -2 -3 -12 -13 -22z m-396 -2 c0 -5 7 -6 17 -3 11 4
14 3 9 -5 -6 -10 -22 -10 -54 -3 -2 1 0 6 3 11 8 13 25 13 25 0z m411 -23
c-10 -9 -11 -8 -5 6 3 10 9 15 12 12 3 -3 0 -11 -7 -18z m-37 -14 c4 -10 4
-14 0 -10 -4 4 -19 0 -33 -9 l-26 -17 24 27 c29 31 27 30 35 9z m17 -26 c-10
-9 -11 -8 -5 6 3 10 9 15 12 12 3 -3 0 -11 -7 -18z m74 -17 c-8 -24 4 -48 15
-30 5 8 9 6 14 -6 4 -10 4 -15 0 -11 -4 4 -17 -1 -28 -10 -17 -15 -19 -15 -8
-1 9 11 10 18 2 23 -5 3 -10 1 -10 -6 0 -7 -2 -10 -5 -7 -3 2 0 19 6 36 12 34
24 45 14 12z m-450 -81 c-8 -19 -12 -25 -9 -14 3 11 9 40 13 65 5 39 6 41 9
14 2 -17 -4 -47 -13 -65z m216 53 c-5 -10 -18 -25 -27 -33 -11 -9 -9 -2 6 19
26 35 36 42 21 14z m269 -55 c0 -8 -3 -7 -9 2 -7 11 -10 9 -16 -8 -4 -13 -9
-20 -12 -18 -2 3 0 15 7 26 11 22 30 20 30 -2z m-99 -44 c-12 -20 -14 -14 -5
12 4 9 9 14 11 11 3 -2 0 -13 -6 -23z m93 -49 c3 -8 2 -12 -4 -9 -6 3 -10 10
-10 16 0 14 7 11 14 -7z m130 -51 c-6 -52 -17 -72 -29 -52 -6 8 -4 10 4 4 9
-5 12 0 10 16 -2 24 10 79 17 79 2 0 2 -21 -2 -47z m66 37 c0 -5 -2 -10 -4
-10 -3 0 -8 5 -11 10 -3 6 -1 10 4 10 6 0 11 -4 11 -10z m91 -37 c-4 -34 -5
-36 -11 -13 -4 14 -2 31 3 38 13 17 14 16 8 -25z m770 -8 c15 10 10 -5 -7 -22
-13 -13 -13 -18 -2 -25 10 -8 10 -9 -1 -6 -9 3 -14 16 -14 36 1 42 4 51 10 29
2 -9 9 -15 14 -12z m-1020 -42 c-12 -20 -14 -14 -5 12 4 9 9 14 11 11 3 -2 0
-13 -6 -23z m46 -15 c-3 -8 -6 -5 -6 6 -1 11 2 17 5 13 3 -3 4 -12 1 -19z
m1622 -28 c5 -17 6 -28 1 -25 -4 3 -10 0 -12 -6 -2 -7 -4 4 -4 25 0 20 1 36 2
36 1 0 7 -14 13 -30z m-642 -22 c-3 -8 -6 -5 -6 6 -1 11 2 17 5 13 3 -3 4 -12
1 -19z m-502 -68 c-3 -5 -12 -10 -18 -10 -7 0 -6 4 3 10 19 12 23 12 15 0z
m-961 -45 c-9 -14 -18 -25 -21 -25 -5 0 5 18 20 38 17 22 18 13 1 -13z m1000
10 c-4 -8 -8 -15 -10 -15 -2 0 -4 7 -4 15 0 8 4 15 10 15 5 0 7 -7 4 -15z
m949 -68 c3 -8 -1 -14 -9 -14 -15 0 -18 9 -7 20 9 9 10 9 16 -6z m84 -2 c0 -8
-4 -12 -9 -9 -5 3 -6 10 -3 15 9 13 12 11 12 -6z m-1936 -58 c-10 -9 -11 -8
-5 6 3 10 9 15 12 12 3 -3 0 -11 -7 -18z"/>
<path d="M878 1473 c7 -3 16 -2 19 1 4 3 -2 6 -13 5 -11 0 -14 -3 -6 -6z"/>
<path d="M1239 1455 c-65 -36 -81 -216 -20 -232 10 -2 25 -16 32 -30 21 -40
47 -48 78 -25 14 10 36 22 47 26 29 9 44 47 44 112 0 64 -21 116 -56 139 -35
22 -94 27 -125 10z m81 -20 c0 -9 7 -18 16 -22 13 -5 13 -7 2 -14 -9 -6 -9 -9
-1 -9 6 0 11 -9 10 -21 -1 -19 -2 -19 -14 -3 -7 10 -13 13 -13 7 0 -6 -7 -14
-16 -17 -8 -3 -13 -2 -10 2 3 4 -4 14 -16 21 -11 7 -17 8 -13 2 3 -6 1 -11 -4
-11 -6 0 -11 11 -11 25 0 14 5 25 10 25 6 0 10 5 10 11 0 5 -5 7 -12 3 -7 -4
-8 -3 -4 4 11 18 66 15 66 -3z"/>
<path d="M1678 1423 c7 -3 16 -2 19 1 4 3 -2 6 -13 5 -11 0 -14 -3 -6 -6z"/>
<path d="M1886 987 c3 -10 9 -15 12 -12 3 3 0 11 -7 18 -10 9 -11 8 -5 -6z"/>
<path d="M1861 844 c0 -11 3 -14 6 -6 3 7 2 16 -1 19 -3 4 -6 -2 -5 -13z"/>
<path d="M690 839 c0 -5 5 -7 10 -4 6 3 10 8 10 11 0 2 -4 4 -10 4 -5 0 -10
-5 -10 -11z"/>
<path d="M1720 805 c0 -5 5 -17 10 -25 5 -8 10 -10 10 -5 0 6 -5 17 -10 25 -5
8 -10 11 -10 5z"/>
<path d="M1747 766 c-4 -11 -3 -15 4 -10 8 4 9 -1 4 -16 -4 -14 -3 -20 3 -16
5 3 12 15 15 26 3 11 1 18 -3 15 -5 -3 -10 0 -12 7 -3 7 -7 5 -11 -6z"/>
<path d="M866 755 c-9 -26 -7 -32 5 -12 6 10 9 21 6 23 -2 3 -7 -2 -11 -11z"/>
<path d="M1817 750 c3 -11 9 -22 13 -25 5 -3 6 4 3 15 -3 11 -9 22 -13 25 -5
3 -6 -4 -3 -15z"/>
<path d="M970 705 c0 -5 5 -17 10 -25 5 -8 10 -10 10 -5 0 6 -5 17 -10 25 -5
8 -10 11 -10 5z"/>
<path d="M720 685 c-7 -9 -8 -15 -2 -15 5 0 12 7 16 15 3 8 4 15 2 15 -2 0 -9
-7 -16 -15z"/>
<path d="M995 651 c-3 -5 -2 -12 3 -15 5 -3 9 1 9 9 0 17 -3 19 -12 6z"/>
<path d="M529 1334 c-9 -12 -10 -15 -1 -10 7 4 12 2 12 -5 0 -10 3 -10 12 -1
8 8 9 15 2 22 -8 8 -15 6 -25 -6z"/>
<path d="M627 1023 c-4 -3 -7 -11 -7 -17 0 -6 5 -5 12 2 6 6 9 14 7 17 -3 3
-9 2 -12 -2z"/>
<path d="M950 2566 c-14 -19 -28 -32 -31 -30 -4 2 -13 -4 -20 -13 -12 -15 -12
-16 1 -8 8 5 20 10 27 11 19 3 75 48 64 52 -6 2 -9 8 -5 13 3 5 2 9 -3 9 -4 0
-19 -16 -33 -34z"/>
<path d="M1009 2597 c-1 -4 -2 -10 -3 -14 -1 -5 -5 -14 -10 -21 -4 -7 -5 -19
-2 -27 3 -8 1 -17 -5 -20 -5 -4 -7 -12 -3 -18 3 -7 -1 -4 -9 6 -14 16 -14 16
-14 -7 0 -21 2 -24 18 -16 12 7 20 7 24 0 3 -5 1 -10 -4 -10 -6 0 -11 -8 -11
-17 1 -16 2 -16 12 2 15 25 19 47 7 39 -5 -3 -8 6 -7 19 1 16 7 23 15 20 10
-4 12 3 8 28 -6 32 -14 50 -16 36z"/>
<path d="M1036 2585 c-3 -8 -1 -15 3 -15 5 0 11 7 15 15 3 8 1 15 -3 15 -5 0
-11 -7 -15 -15z"/>
<path d="M1071 2575 c-14 -13 -29 -21 -34 -18 -6 3 -7 1 -3 -6 4 -6 3 -17 -2
-24 -5 -7 -6 -21 -3 -31 7 -18 8 -18 14 -2 4 10 4 22 1 28 -4 6 4 5 17 -2 22
-10 23 -10 6 4 -18 14 -17 16 15 45 18 17 29 30 23 30 -5 0 -21 -11 -34 -24z"/>
<path d="M1470 2596 c0 -4 5 -16 10 -26 7 -13 7 -21 -2 -26 -6 -4 -8 -3 -5 3
5 8 -25 43 -37 43 -3 0 -3 -15 -1 -32 4 -31 3 -32 -11 -13 -12 17 -16 18 -24
5 -5 -8 -5 -17 -1 -20 5 -3 10 -19 13 -36 3 -24 1 -31 -9 -27 -7 3 -10 9 -7
14 3 5 0 9 -5 9 -6 0 -10 -11 -9 -24 1 -14 6 -22 10 -20 4 3 8 0 8 -5 0 -6 -3
-11 -7 -11 -5 0 -6 -23 -4 -51 2 -32 -1 -49 -7 -45 -10 6 -23 -50 -14 -59 8
-8 32 16 26 26 -7 12 15 89 26 89 5 0 7 -8 4 -17 -4 -13 -3 -14 3 -5 6 7 16
12 23 10 7 -2 15 3 17 10 3 8 -1 10 -12 6 -15 -6 -15 -4 -4 14 10 15 16 18 21
9 6 -9 8 -8 8 3 0 13 1 13 10 0 12 -19 12 -13 1 27 -9 32 1 56 13 31 7 -16 1
19 -9 47 -5 17 -4 16 7 -2 10 -16 17 -20 28 -12 13 8 13 11 0 22 -9 6 -25 25
-38 41 -12 16 -22 26 -22 22z m-15 -146 c10 8 15 8 21 -2 4 -7 4 -10 -1 -6
-10 9 -37 -11 -30 -22 3 -4 -2 -11 -10 -14 -12 -4 -13 -2 -7 12 5 9 8 23 6 30
-1 7 0 8 3 2 3 -8 9 -8 18 0z"/>
<path d="M1506 2585 c4 -8 11 -15 16 -15 6 0 5 6 -2 15 -7 8 -14 15 -16 15 -2
0 -1 -7 2 -15z"/>
<path d="M1545 2592 c3 -3 18 -6 33 -7 19 0 28 -6 30 -20 3 -19 2 -19 -8 -2
-9 14 -15 16 -25 7 -8 -7 -18 -9 -24 -6 -5 3 -11 -1 -15 -9 -3 -8 -1 -17 5
-21 6 -3 8 -12 5 -20 -3 -7 -1 -16 5 -20 17 -10 20 1 9 30 -9 25 -8 26 10 16
11 -6 20 -8 20 -4 0 4 8 0 19 -10 17 -16 18 -15 16 26 l-2 43 19 -43 c11 -24
22 -42 25 -39 2 3 -1 15 -7 27 -16 31 -8 33 20 7 27 -25 65 -43 55 -27 -3 6 2
10 11 10 16 0 16 1 -1 20 -10 11 -15 20 -10 20 4 0 2 6 -4 13 -7 10 -38 14
-102 14 -49 1 -88 -2 -84 -5z m175 -37 c19 -23 8 -26 -19 -4 -16 13 -18 19 -8
19 8 0 20 -7 27 -15z"/>
<path d="M1143 2579 c3 -9 -2 -27 -10 -40 -11 -15 -12 -20 -3 -14 9 5 11 4 6
-4 -4 -6 -1 -14 8 -17 8 -3 12 -12 9 -20 -3 -8 0 -14 6 -14 6 0 11 7 11 15 0
21 -4 30 -11 28 -3 -1 -4 9 -2 22 3 13 0 31 -7 42 -9 13 -10 14 -7 2z"/>
<path d="M1090 2540 c-8 -5 -11 -12 -7 -16 4 -4 13 -2 19 4 6 6 10 14 7 16 -2
3 -11 1 -19 -4z"/>
<path d="M1176 2535 c-3 -8 -1 -15 4 -15 6 0 10 7 10 15 0 8 -2 15 -4 15 -2 0
-6 -7 -10 -15z"/>
<path d="M1098 2514 c-4 -3 -14 -7 -24 -8 -10 -2 -20 -8 -22 -15 -3 -9 2 -11
17 -6 29 9 38 -18 17 -50 -9 -14 -13 -25 -9 -26 5 0 18 -2 31 -5 18 -3 22 1
22 20 0 44 19 37 26 -9 3 -25 10 -48 15 -50 4 -3 6 -12 2 -20 -3 -8 0 -15 6
-15 13 0 14 20 2 52 -6 17 -5 29 5 43 8 10 14 25 14 33 0 13 -3 12 -19 -2 -17
-16 -19 -15 -35 19 -14 30 -20 34 -32 24 -12 -10 -13 -9 -8 5 6 16 2 21 -8 10z"/>
<path d="M1375 2510 c-3 -5 -1 -10 4 -10 6 0 11 5 11 10 0 6 -2 10 -4 10 -3 0
-8 -4 -11 -10z"/>
<path d="M935 2501 c-3 -6 -10 -9 -14 -6 -5 2 -16 -4 -26 -15 -10 -11 -23 -17
-29 -13 -6 3 -5 0 2 -8 10 -11 15 -9 28 9 8 12 19 20 23 18 10 -6 37 11 29 19
-3 4 -9 1 -13 -4z"/>
<path d="M1520 2476 c0 -2 7 -6 15 -10 8 -3 15 -1 15 4 0 6 -7 10 -15 10 -8 0
-15 -2 -15 -4z"/>
<path d="M795 2459 c-4 -6 -5 -12 -2 -15 2 -3 7 2 10 11 7 17 1 20 -8 4z"/>
<path d="M1221 2424 c0 -11 3 -14 6 -6 3 7 2 16 -1 19 -3 4 -6 -2 -5 -13z"/>
<path d="M2010 2436 c0 -2 7 -7 16 -10 8 -3 12 -2 9 4 -6 10 -25 14 -25 6z"/>
<path d="M1195 2361 c0 -27 3 -44 7 -38 8 13 12 -2 9 -34 -1 -9 6 -22 16 -30
16 -12 17 -12 5 2 -7 10 -10 32 -7 58 4 28 2 40 -5 36 -6 -4 -10 6 -10 24 0
17 -3 31 -7 31 -5 0 -8 -22 -8 -49z"/>
<path d="M1146 2345 c-3 -8 -1 -15 4 -15 6 0 10 7 10 15 0 8 -2 15 -4 15 -2 0
-6 -7 -10 -15z"/>
<path d="M1720 2260 c-9 -6 -10 -10 -3 -10 6 0 15 5 18 10 8 12 4 12 -15 0z"/>
<path d="M2158 1873 c7 -3 16 -2 19 1 4 3 -2 6 -13 5 -11 0 -14 -3 -6 -6z"/>
<path d="M2288 1663 c6 -2 18 -2 25 0 6 3 1 5 -13 5 -14 0 -19 -2 -12 -5z"/>
<path d="M2260 1516 c0 -2 7 -7 16 -10 8 -3 12 -2 9 4 -6 10 -25 14 -25 6z"/>
<path d="M252 1425 c-11 -12 -10 -15 3 -15 8 0 15 7 15 15 0 18 -2 18 -18 0z"/>
<path d="M2344 1345 c10 -8 24 -11 29 -8 6 4 2 10 -9 14 -31 12 -40 9 -20 -6z"/>
<path d="M193 1338 c-6 -10 27 -9 52 2 16 7 13 8 -13 7 -19 -1 -36 -5 -39 -9z"/>
<path d="M347 1243 c-4 -3 -7 -11 -7 -17 0 -6 5 -5 12 2 6 6 9 14 7 17 -3 3
-9 2 -12 -2z"/>
<path d="M170 1080 c-8 -5 -10 -10 -5 -10 6 0 17 5 25 10 8 5 11 10 5 10 -5 0
-17 -5 -25 -10z"/>
<path d="M2381 1046 c7 -15 15 -23 17 -16 3 7 -3 19 -13 28 -15 16 -16 15 -4
-12z"/>
<path d="M225 1010 c-10 -11 -14 -20 -9 -20 5 0 15 9 22 20 7 11 11 20 9 20
-2 0 -12 -9 -22 -20z"/>
<path d="M235 970 c-3 -5 -2 -10 4 -10 5 0 13 5 16 10 3 6 2 10 -4 10 -5 0
-13 -4 -16 -10z"/>
<path d="M2346 947 c3 -10 9 -15 12 -12 3 3 0 11 -7 18 -10 9 -11 8 -5 -6z"/>
<path d="M271 813 c-10 -26 -10 -27 4 -9 8 11 15 23 15 28 0 15 -7 8 -19 -19z"/>
<path d="M2340 836 c0 -2 8 -10 18 -17 15 -13 16 -12 3 4 -13 16 -21 21 -21
13z"/>
<path d="M235 751 c-14 -27 -14 -30 0 -25 21 8 38 41 25 49 -5 3 -16 -8 -25
-24z"/>
<path d="M2315 620 c3 -5 8 -10 11 -10 2 0 4 5 4 10 0 6 -5 10 -11 10 -5 0 -7
-4 -4 -10z"/>
<path d="M326 475 c-9 -26 -7 -32 5 -12 6 10 9 21 6 23 -2 3 -7 -2 -11 -11z"/>
<path d="M382 422 c-11 -25 -11 -25 4 -10 9 9 15 21 13 27 -2 6 -10 -2 -17
-17z"/>
<path d="M2220 410 c1 -8 7 -24 15 -34 19 -25 19 -16 0 20 -8 16 -15 22 -15
14z"/>
<path d="M372 378 c-16 -16 -15 -25 3 -25 8 0 15 9 15 19 0 21 -2 22 -18 6z"/>
<path d="M2130 178 c0 -8 9 -23 20 -33 12 -11 20 -13 20 -6 0 6 -9 21 -20 33
-15 17 -20 18 -20 6z"/>
<path d="M2111 164 c0 -11 3 -14 6 -6 3 7 2 16 -1 19 -3 4 -6 -2 -5 -13z"/>
<path d="M2113 65 l6 -40 -14 33 c-8 17 -17 32 -19 32 -7 0 6 -44 16 -57 5 -7
7 -16 4 -21 -3 -5 1 -9 9 -9 11 0 13 11 11 44 -2 24 -7 47 -11 51 -4 4 -5 -11
-2 -33z"/>
<path d="M451 24 c0 -11 3 -14 6 -6 3 7 2 16 -1 19 -3 4 -6 -2 -5 -13z"/>
<path d="M495 19 c-4 -6 -5 -12 -2 -15 2 -3 7 2 10 11 7 17 1 20 -8 4z"/>
</g>
</svg>
